<svg width="36" height="47" viewBox="0 0 36 47" fill="none" xmlns="http://www.w3.org/2000/svg">
<path d="M3.85883 45.7705L10.6007 39.0369L17.434 32.2119L17.5227 32.1233L17.6481 32.1206L19.5648 32.0789H19.565C21.4852 32.0389 22.2013 31.9536 23.558 31.5994L23.6913 31.5643L23.6921 31.5641C25.8488 30.9969 28.3316 29.5402 30.1082 27.7954L30.1923 27.7121L30.1925 27.7118C33.9619 23.9504 35.4386 19.0712 34.4066 13.729L34.3818 13.6027C34.021 11.8235 33.0634 9.59105 32.0095 8.09424L31.9593 8.02349L31.959 8.02318C31.2843 7.08024 29.8303 5.55231 28.9615 4.86188C26.5565 2.99634 23.8063 1.9156 20.7755 1.65631L20.631 1.64459L20.6302 1.64453C20.0129 1.5958 15.5734 1.56219 10.0132 1.56219H0.759033V37.5357L3.73365 34.5539L7.15847 31.1292L7.10903 19.8427L7.05903 8.41774L7.05766 8.1038H13.5548C20.2465 8.1038 20.6018 8.11649 22.012 8.58655L22.0127 8.58674L22.0132 8.58693C23.314 9.02624 24.3279 9.63293 25.3356 10.5803L25.3359 10.5806L25.3362 10.5809C26.4523 11.6364 27.2467 12.9337 27.7201 14.4657L27.7205 14.4669C27.8266 14.8149 27.89 15.0489 27.9232 15.3948C27.9552 15.7272 27.959 16.1622 27.959 16.9146C27.9668 18.2811 27.9542 18.6086 27.7964 19.1721L27.7629 19.2883C26.8632 22.4002 24.4398 24.6619 21.1863 25.4452L21.1847 25.4456L21.183 25.4459L21.1406 25.4552C20.7198 25.5432 19.9673 25.5831 18.404 25.6141L18.0688 25.6205H18.0684L15.6869 25.6601L12.243 29.1201C10.787 30.5887 8.51003 32.8781 6.53131 34.8693L4.69336 36.7198L4.69293 36.7202L0.759033 40.6704V45.7705H3.85883Z" fill="white" stroke="black" stroke-width="1.25"/>
</svg>
